<svg xmlns="http://www.w3.org/2000/svg" version="1.1" xmlns:xlink="http://www.w3.org/1999/xlink" xmlns:svgjs="http://svgjs.dev/svgjs" width="100%" height="100%" viewBox="0 0 1000 600"><rect width="1000" height="600" x="0" y="0" fill="#1c1c1c"/><g><rect width="333.3333333333333" height="333.3333333333333" rx="13.333333333333334" ry="13.333333333333334" y="264.5897368728883" fill="#ff6600" transform="matrix(0.5157457126533904,0,0,0.5157457126533904,0,77.58135881032854)" x="242.36761474609375"/><path d="M409.1264669455526 356.2564175151403L409.1264669455526 356.2564175151403Q421.57077552709234 356.2564175151403 430.2817915341701 359.25226958106657Q438.9928075412479 362.2481216469928 444.2240261486729 369.11553638273136Q449.45524475609795 376.0059961343617 451.8519264088389 387.45936903255654Q454.2486080615799 398.9127419307514 454.2486080615799 415.66646848404656L454.2486080615799 415.66646848404656Q454.2486080615799 432.42019503734167 451.8519264088389 443.8735679355365Q449.45524475609795 455.3269408337314 444.2240261486729 462.2174005853617Q438.9928075412479 469.0848153211003 430.2817915341701 472.0806673870265Q421.57077552709234 475.0765194529527 409.1264669455526 475.0765194529527L409.1264669455526 475.0765194529527Q396.5208432527707 475.0765194529527 387.87896229336815 472.0806673870265Q379.26012634985733 469.0848153211003 373.9597726947571 462.2174005853617Q368.6363740237651 455.3269408337314 366.23969237102415 443.8735679355365Q363.8199657023914 432.42019503734167 363.8199657023914 415.66646848404656L363.8199657023914 415.66646848404656Q363.8199657023914 398.9127419307514 366.23969237102415 387.45936903255654Q368.6363740237651 376.0059961343617 373.9597726947571 369.11553638273136Q379.26012634985733 362.2481216469928 387.87896229336815 359.25226958106657Q396.5208432527707 356.2564175151403 409.1264669455526 356.2564175151403ZM398.180084396976 488.8343939403216L402.3281872574893 480.0542428855686Q412.1223190114788 484.20234574608185 423.0687015600554 487.01383768487415Q434.015084108632 489.82532962366645 446.2980775789295 491.66893089500564L446.2980775789295 491.66893089500564L441.642984368798 506.2564259544772Q428.71473045353173 503.6062491269271 417.92966301619737 498.88202086912037Q407.14459557886295 494.1577926113136 398.180084396976 488.8343939403216L398.180084396976 488.8343939403216ZM409.1264669455526 369.3690315575405L409.1264669455526 369.3690315575405Q397.8344091585999 369.3690315575405 391.2896246453457 373.6784495292959Q384.7448401320915 378.01091251694305 382.0024832409744 388.0354944298501Q379.26012634985733 398.0831213586488 379.26012634985733 415.66646848404656L379.26012634985733 415.66646848404656Q379.26012634985733 433.0885004982021 382.0024832409744 443.2052624746761Q384.7448401320915 453.32202445115 391.2896246453457 457.65448743879716Q397.8344091585999 461.96390541055257 409.1264669455526 461.96390541055257L409.1264669455526 461.96390541055257Q420.41852473250526 461.96390541055257 426.8711291821926 457.65448743879716Q433.34677864777154 453.32202445115 436.1813156024556 443.2052624746761Q438.9928075412479 433.0885004982021 438.9928075412479 415.66646848404656L438.9928075412479 415.66646848404656Q438.9928075412479 398.0831213586488 436.1813156024556 388.0354944298501Q433.34677864777154 378.01091251694305 426.8711291821926 373.6784495292959Q420.41852473250526 369.3690315575405 409.1264669455526 369.3690315575405Z " fill="#fffff0" transform="matrix(0.5157457126533904,0,0,0.5157457126533904,0,77.58135881032854)"/><path d="M704.3407880820272 356.2564175151403L704.3407880820272 356.2564175151403Q716.785096663567 356.2564175151403 725.4961126706446 359.25226958106657Q734.2071286777225 362.2481216469928 739.4383472851475 369.11553638273136Q744.6695658925726 376.0059961343617 747.0662475453134 387.45936903255654Q749.4629291980546 398.9127419307514 749.4629291980546 415.66646848404656L749.4629291980546 415.66646848404656Q749.4629291980546 432.42019503734167 747.0662475453134 443.8735679355365Q744.6695658925726 455.3269408337314 739.4383472851475 462.2174005853617Q734.2071286777225 469.0848153211003 725.4961126706446 472.0806673870265Q716.785096663567 475.0765194529527 704.3407880820272 475.0765194529527L704.3407880820272 475.0765194529527Q691.7351643892453 475.0765194529527 683.0932834298428 472.0806673870265Q674.4744474863319 469.0848153211003 669.1740938312316 462.2174005853617Q663.8506951602396 455.3269408337314 661.4540135074988 443.8735679355365Q659.0342868388659 432.42019503734167 659.0342868388659 415.66646848404656L659.0342868388659 415.66646848404656Q659.0342868388659 398.9127419307514 661.4540135074988 387.45936903255654Q663.8506951602396 376.0059961343617 669.1740938312316 369.11553638273136Q674.4744474863319 362.2481216469928 683.0932834298428 359.25226958106657Q691.7351643892453 356.2564175151403 704.3407880820272 356.2564175151403ZM693.3944055334506 488.8343939403216L697.5425083939638 480.0542428855686Q707.3366401479534 484.20234574608185 718.28302269653 487.01383768487415Q729.2294052451066 489.82532962366645 741.5123987154041 491.66893089500564L741.5123987154041 491.66893089500564L736.8573055052725 506.2564259544772Q723.9290515900063 503.6062491269271 713.1439841526719 498.88202086912037Q702.3589167153375 494.1577926113136 693.3944055334506 488.8343939403216L693.3944055334506 488.8343939403216ZM704.3407880820272 369.3690315575405L704.3407880820272 369.3690315575405Q693.0487302950745 369.3690315575405 686.5039457818202 373.6784495292959Q679.959161268566 378.01091251694305 677.216804377449 388.0354944298501Q674.4744474863319 398.0831213586488 674.4744474863319 415.66646848404656L674.4744474863319 415.66646848404656Q674.4744474863319 433.0885004982021 677.216804377449 443.2052624746761Q679.959161268566 453.32202445115 686.5039457818202 457.65448743879716Q693.0487302950745 461.96390541055257 704.3407880820272 461.96390541055257L704.3407880820272 461.96390541055257Q715.6328458689799 461.96390541055257 722.0854503186672 457.65448743879716Q728.5610997842462 453.32202445115 731.3956367389302 443.2052624746761Q734.2071286777225 433.0885004982021 734.2071286777225 415.66646848404656L734.2071286777225 415.66646848404656Q734.2071286777225 398.0831213586488 731.3956367389302 388.0354944298501Q728.5610997842462 378.01091251694305 722.0854503186672 373.6784495292959Q715.6328458689799 369.3690315575405 704.3407880820272 369.3690315575405ZM772.2083598832021 392.11446224268803L786.311909608947 392.11446224268803L786.311909608947 448.85129136815243Q786.1505944977048 456.4791916283184 789.1234015477394 459.6363588054868Q792.1192536136656 462.79352598265524 799.0788484129712 462.79352598265524L799.0788484129712 462.79352598265524Q805.8771281010345 462.79352598265524 812.6062727414226 459.54417874191984Q819.3354173818108 456.31787651707623 828.7838738974242 450.1879022898733L828.7838738974242 450.1879022898733L830.6044301528717 459.9589890279712Q821.1559736372582 467.425574176895 812.2836425189382 471.2510468149239Q803.3882663847265 475.0765194529527 794.2624400915975 475.0765194529527L794.2624400915975 475.0765194529527Q772.2083598832021 475.0765194529527 772.2083598832021 452.83807911742343L772.2083598832021 452.83807911742343L772.2083598832021 392.11446224268803ZM827.2859478644611 392.11446224268803L841.3894975902061 392.11446224268803L841.3894975902061 472.91028795912916L830.1204848191452 472.91028795912916L828.7838738974242 457.65448743879716L827.2859478644611 455.1656257224892L827.2859478644611 392.11446224268803ZM900.4538733207362 390.10954586010666L900.4538733207362 390.10954586010666Q918.7055259069944 390.10954586010666 926.9325965803457 396.74651043692785Q935.1366222378051 403.383475013749 935.1366222378051 416.4960890561492L935.1366222378051 416.4960890561492Q935.2979373490473 427.2811564934836 930.6658891548076 433.34199567301124Q926.0107959446761 439.40283485253894 915.8940339682022 439.40283485253894L915.8940339682022 439.40283485253894L868.7669764695934 439.40283485253894L868.7669764695934 428.4334072880706L912.2529214573071 428.4334072880706Q917.7145902236496 428.4334072880706 919.3738313678549 424.7001147136087Q921.0330725120602 420.96682213914676 921.0330725120602 416.4960890561492L921.0330725120602 416.4960890561492Q920.8717574008181 408.70687368474097 916.4010243178204 405.3883913963304Q911.907246218931 402.06990910791984 901.1221787815966 402.06990910791984L901.1221787815966 402.06990910791984Q892.3420277268436 402.06990910791984 887.2721242306608 404.627905871903Q882.202220734478 407.20894765177786 880.1281693042214 413.5924170537899Q878.0541178739647 419.97588645580197 878.0541178739647 431.4292593539968L878.0541178739647 431.4292593539968Q878.0541178739647 444.3805582851548 880.6351596538397 451.17883797321815Q883.2162014337146 457.9771176612815 888.8391853112992 460.46597937758946Q894.4852142047755 462.9548410938974 903.7723556091468 462.9548410938974L903.7723556091468 462.9548410938974Q910.2480050747258 462.9548410938974 917.9680853984587 462.3787156966039Q925.6881657221917 461.8025902993104 931.8181399493947 460.9729697272077L931.8181399493947 460.9729697272077L933.3160659823577 470.4214262428212Q929.4905933443288 471.9193522757843 923.9367445144194 472.91028795912916Q918.38289568451 473.901223642474 912.4833716162245 474.40821399209227Q906.6068925638308 474.8921593258188 901.9517993536994 474.8921593258188L901.9517993536994 474.8921593258188Q888.0095647391964 474.8921593258188 879.5520439069278 470.67492141763034Q871.0945230746593 466.43463849355015 867.1999153889551 457.05531702561194Q863.305307703251 447.6990405735654 863.305307703251 432.2588799260995L863.305307703251 432.2588799260995Q863.305307703251 416.334773944907 867.1999153889551 407.1167675882109Q871.0945230746593 397.9218062474066 879.2985487321187 394.00415354581077Q887.5256194054699 390.10954586010666 900.4538733207362 390.10954586010666ZM983.2546154197587 390.10954586010666L983.2546154197587 390.10954586010666Q988.5780140907507 390.10954586010666 994.5466732067114 390.45522109848275Q1000.5153323226721 390.77785132096716 1006.4148563909575 391.2848416705854Q1012.2913354433513 391.76878700431195 1017.2690588759672 392.5984075764146L1017.2690588759672 392.5984075764146L1016.1168080813802 402.89952968002245Q1008.4889078212142 402.55385444164637 1000.7688274974812 402.30035926683723Q993.0487471737483 402.06990910791984 985.4208469135823 402.06990910791984L985.4208469135823 402.06990910791984Q977.9542617646584 401.8855489807859 973.644843792903 402.3925393304042Q969.3123808052559 402.89952968002245 967.4226895021332 405.0427161579543Q965.5099531831188 407.20894765177786 965.5099531831188 412.34798619563594L965.5099531831188 412.34798619563594Q965.5099531831188 418.6623205499728 968.4827602331533 420.6441919166624Q971.4786122990795 422.62606328335204 977.285956303798 423.96267420507303L977.285956303798 423.96267420507303L1000.8379625451564 429.2630278601732Q1010.4707791879039 431.590574465239 1015.0336923344685 436.4069827866127Q1019.596605481033 441.2233911079864 1019.596605481033 451.50146819570256L1019.596605481033 451.50146819570256Q1019.596605481033 461.45691506093425 1015.8633129065711 466.43463849355015Q1012.1300203321091 471.41236192616606 1004.5021200719432 473.07160307037134Q996.8742198117772 474.7308442145766 985.0751716752061 474.7308442145766L985.0751716752061 474.7308442145766Q980.7657537034509 474.7308442145766 972.2160528076151 474.40821399209227Q963.6893969276713 474.0625387537162 953.3882748240634 472.40329760951084L953.3882748240634 472.40329760951084L954.3792105074083 462.12522052179474Q958.3659982566793 462.2865356330369 962.8597763555687 462.54003080784605Q967.3305094385662 462.79352598265524 972.2160528076151 462.79352598265524Q977.1246411925558 462.79352598265524 982.2636797364139 462.79352598265524L982.2636797364139 462.79352598265524Q991.3895060295431 462.79352598265524 996.528544573401 461.96390541055257Q1001.667583117259 461.1342848384499 1003.8338146110827 458.7145581698172Q1006.0000461049062 456.31787651707623 1006.0000461049062 451.50146819570256L1006.0000461049062 451.50146819570256Q1006.0000461049062 445.5328090797418 1002.4972036893618 443.5509377130522Q999.017406289709 441.54602133047075 993.2100622849905 440.23245542464156L993.2100622849905 440.23245542464156L969.9806862661164 434.9090567536496Q963.3437216892952 433.2498156094443 959.3569339400242 430.5074587183272Q955.3931912066448 427.78814684310186 953.5495899353056 423.3865488077795Q951.729033679858 418.9849507724571 951.729033679858 412.34798619563594L951.729033679858 412.34798619563594Q951.729033679858 402.89952968002245 955.0475159682687 398.0831213586488Q958.3659982566793 393.26671303727505 965.3486380718766 391.60747189306977Q972.3082328711821 389.9482307488645 983.2546154197587 390.10954586010666ZM1046.812769249178 368.2167807629535L1060.9163189749231 368.2167807629535L1060.9163189749231 450.6718476235999Q1060.9163189749231 456.4791916283184 1063.4051806912312 458.96805334462636Q1065.894042407539 461.45691506093425 1071.8627015234997 461.45691506093425L1071.8627015234997 461.45691506093425L1084.1456949937974 461.45691506093425L1085.8049361380026 472.24198249826867Q1083.1547593104524 472.91028795912916 1079.651916894908 473.4172783087474Q1076.1721194952552 473.901223642474 1072.8536372068445 474.15471881728314Q1069.535154918434 474.40821399209227 1067.5532835517442 474.40821399209227L1067.5532835517442 474.40821399209227Q1057.4365215752705 474.40821399209227 1052.1131229042785 468.76218509861593Q1046.812769249178 463.1161562051396 1046.812769249178 452.49240387904734L1046.812769249178 452.49240387904734L1046.812769249178 368.2167807629535ZM1048.1263351550074 392.11446224268803L1086.6345567101052 392.11446224268803L1086.6345567101052 403.22215990250686L1032.2022291738149 403.22215990250686L1032.2022291738149 392.9440828147907L1048.1263351550074 392.11446224268803ZM1104.5405340579873 392.11446224268803L1118.4827686724902 392.11446224268803L1118.4827686724902 472.91028795912916L1104.5405340579873 472.91028795912916L1104.5405340579873 392.11446224268803ZM1108.204691584774 357.75434354810346L1114.8416561615952 357.75434354810346Q1119.1510741333504 357.75434354810346 1119.1510741333504 362.0637615198589L1119.1510741333504 362.0637615198589L1119.1510741333504 371.5352630513641Q1119.1510741333504 375.8446810231195 1114.8416561615952 375.8446810231195L1114.8416561615952 375.8446810231195L1108.204691584774 375.8446810231195Q1103.8952736130186 375.8446810231195 1103.8952736130186 371.5352630513641L1103.8952736130186 371.5352630513641L1103.8952736130186 362.0637615198589Q1103.8952736130186 357.75434354810346 1108.204691584774 357.75434354810346L1108.204691584774 357.75434354810346ZM1179.2063855472256 390.10954586010666L1179.2063855472256 390.10954586010666Q1193.1486201617283 390.10954586010666 1201.5370059463216 394.2576487206199Q1209.9023467150234 398.40575158113313 1213.5665042418102 407.7850730490714Q1217.2076167527052 417.16439451700967 1217.2076167527052 432.58151014858385L1217.2076167527052 432.58151014858385Q1217.2076167527052 448.02167079604976 1213.5665042418102 457.40099226398803Q1209.9023467150234 466.7803137319263 1201.5370059463216 470.92841659243953Q1193.1486201617283 475.0765194529527 1179.2063855472256 475.0765194529527L1179.2063855472256 475.0765194529527Q1165.4485110598566 475.0765194529527 1157.060125275263 470.92841659243953Q1148.6947845065615 466.7803137319263 1144.9614919320995 457.40099226398803Q1141.2281993576375 448.02167079604976 1141.2281993576375 432.58151014858385L1141.2281993576375 432.58151014858385Q1141.2281993576375 417.16439451700967 1144.9614919320995 407.7850730490714Q1148.6947845065615 398.40575158113313 1157.060125275263 394.2576487206199Q1165.4485110598566 390.10954586010666 1179.2063855472256 390.10954586010666ZM1179.2063855472256 402.06990910791984L1179.2063855472256 402.06990910791984Q1170.4262344924725 402.06990910791984 1165.3563309962897 404.7892209831452Q1160.3094725159986 407.53157787426227 1158.143241022175 414.1685424510834Q1155.9770095283513 420.8055070279046 1155.9770095283513 432.58151014858385L1155.9770095283513 432.58151014858385Q1155.9770095283513 444.3805582851548 1158.143241022175 451.017522861976Q1160.3094725159986 457.65448743879716 1165.3563309962897 460.3737993140225Q1170.4262344924725 463.1161562051396 1179.2063855472256 463.1161562051396L1179.2063855472256 463.1161562051396Q1188.0095816178703 463.1161562051396 1193.1486201617283 460.3737993140225Q1198.2876587055864 457.65448743879716 1200.4538901994101 451.017522861976Q1202.6201216932336 444.3805582851548 1202.6201216932336 432.58151014858385L1202.6201216932336 432.58151014858385Q1202.6201216932336 420.8055070279046 1200.4538901994101 414.1685424510834Q1198.2876587055864 407.53157787426227 1193.1486201617283 404.7892209831452Q1188.0095816178703 402.06990910791984 1179.2063855472256 402.06990910791984ZM1288.3936708422907 390.10954586010666L1288.3936708422907 390.10954586010666Q1310.2864359394437 390.10954586010666 1310.2864359394437 412.34798619563594L1310.2864359394437 412.34798619563594L1310.2864359394437 472.91028795912916L1296.1828862136988 472.91028795912916L1296.1828862136988 416.334773944907Q1296.1828862136988 408.1998833351227 1293.5327093861488 405.1348962215213Q1290.8825325585985 402.06990910791984 1284.5681982042615 402.06990910791984L1284.5681982042615 402.06990910791984Q1277.101613055338 402.06990910791984 1269.635027906414 405.71102161881475Q1262.16844275749 409.3521341297097 1251.8903656697744 415.66646848404656L1251.8903656697744 415.66646848404656L1251.2220602089137 405.5497065075726Q1260.6935617404188 398.24443646989096 1269.9807031447901 394.1885136729447Q1279.2678445491615 390.10954586010666 1288.3936708422907 390.10954586010666ZM1239.2847419769923 392.11446224268803L1251.2220602089137 392.11446224268803L1252.3973560193922 407.53157787426227L1253.3882917027372 410.02043959057016L1253.3882917027372 472.91028795912916L1239.2847419769923 472.91028795912916L1239.2847419769923 392.11446224268803ZM1384.7909723174398 390.10954586010666L1384.7909723174398 390.10954586010666Q1406.7067824304845 390.10954586010666 1406.7067824304845 412.34798619563594L1406.7067824304845 412.34798619563594L1406.7067824304845 472.91028795912916L1392.6032327047396 472.91028795912916L1392.6032327047396 416.334773944907Q1392.6032327047396 408.1998833351227 1389.930010861298 405.1348962215213Q1387.2798340337476 402.06990910791984 1380.9885446953026 402.06990910791984L1380.9885446953026 402.06990910791984Q1373.5219595463789 402.06990910791984 1366.055374397455 405.71102161881475Q1358.5887892485312 409.3521341297097 1348.2876671449233 415.66646848404656L1348.2876671449233 415.66646848404656L1347.6193616840628 405.5497065075726Q1357.090863215568 398.24443646989096 1366.3780046199392 394.1885136729447Q1375.6651460243106 390.10954586010666 1384.7909723174398 390.10954586010666ZM1335.6820434521414 392.11446224268803L1347.6193616840628 392.11446224268803L1348.7946574945415 407.53157787426227L1349.7855931778863 410.02043959057016L1349.7855931778863 472.91028795912916L1335.6820434521414 472.91028795912916L1335.6820434521414 392.11446224268803ZM1470.2418912440125 390.10954586010666L1470.2418912440125 390.10954586010666Q1479.2064024258993 390.10954586010666 1485.4285567166692 392.5292725287394Q1491.650711007439 394.92595418148034 1494.8078781846075 400.57198307495673Q1497.9650453617758 406.2180119684331 1497.9650453617758 415.9890987065309L1497.9650453617758 415.9890987065309L1497.9650453617758 472.91028795912916L1486.8343026860653 472.91028795912916L1484.6911162081335 455.3269408337314L1483.677135508897 453.5063845782839L1483.677135508897 415.9890987065309Q1483.677135508897 408.52251355760706 1480.2895181728109 405.29621133276345Q1476.8788558208335 402.06990910791984 1467.269084193978 402.06990910791984L1467.269084193978 402.06990910791984Q1460.954749839641 402.06990910791984 1451.4141132604607 402.71516955288854Q1441.8734766812802 403.383475013749 1432.5863352769088 404.21309558585165L1432.5863352769088 404.21309558585165L1431.249724355188 393.7737033868934Q1436.8957532486643 392.7597226876568 1443.6248978890526 391.9301021155541Q1450.330997513549 391.1004815434515 1457.3136373287462 390.6165362097249Q1464.2732321280516 390.10954586010666 1470.2418912440125 390.10954586010666ZM1450.0083672910646 423.13305363297036L1491.3280807849546 423.13305363297036L1491.1437206578207 433.7568059590626L1452.4972290073724 433.9181210703048Q1446.6898850026541 434.07943618154695 1444.3623383975882 436.9831081839062Q1442.0347917925224 439.88678018626547 1442.0347917925224 445.02581873012355L1442.0347917925224 445.02581873012355L1442.0347917925224 450.1879022898733Q1442.0347917925224 456.4791916283184 1445.0306438584485 459.38286363067766Q1448.003450908483 462.2865356330369 1454.6404154853044 462.2865356330369L1454.6404154853044 462.2865356330369Q1459.2955086954357 462.2865356330369 1465.1950327637212 460.5581594411564Q1471.071511816115 458.8067382333842 1477.0401709320759 455.1656257224892Q1483.031875063928 451.50146819570256 1488.0095984965442 445.85543930222616L1488.0095984965442 445.85543930222616L1488.0095984965442 456.31787651707623Q1486.1659972252048 458.64542312214195 1482.7783798891192 461.71041023574344Q1479.3677175371415 464.77539734934487 1474.6434892793347 467.67906935170413Q1469.919261021528 470.5827413540634 1464.1810520644847 472.4954776730778Q1458.4658881233331 474.40821399209227 1451.828923546512 474.40821399209227L1451.828923546512 474.40821399209227Q1444.6849686200726 474.40821399209227 1439.2232998537302 471.82717221221736Q1433.738586071496 469.2691754482342 1430.6735989578945 464.19927195205133Q1427.6086118442931 459.12936845586853 1427.6086118442931 451.84714343407865L1427.6086118442931 451.84714343407865L1427.6086118442931 443.04394736343386Q1427.6086118442931 433.5954908478204 1433.4850908966869 428.3642722403954Q1439.3846149649721 423.13305363297036 1450.0083672910646 423.13305363297036L1450.0083672910646 423.13305363297036ZM1523.8445982082 392.11446224268803L1537.7868328227028 392.11446224268803L1537.7868328227028 472.91028795912916L1523.8445982082 472.91028795912916L1523.8445982082 392.11446224268803ZM1527.485710719095 357.75434354810346L1534.1226752959162 357.75434354810346Q1538.4320932676717 357.75434354810346 1538.4320932676717 362.0637615198589L1538.4320932676717 362.0637615198589L1538.4320932676717 371.5352630513641Q1538.4320932676717 375.8446810231195 1534.1226752959162 375.8446810231195L1534.1226752959162 375.8446810231195L1527.485710719095 375.8446810231195Q1523.1762927473396 375.8446810231195 1523.1762927473396 371.5352630513641L1523.1762927473396 371.5352630513641L1523.1762927473396 362.0637615198589Q1523.1762927473396 357.75434354810346 1527.485710719095 357.75434354810346L1527.485710719095 357.75434354810346ZM1564.3346911299877 392.11446224268803L1575.281073678564 392.11446224268803L1577.1016299340115 407.53157787426227L1578.4382408557326 410.02043959057016L1578.4382408557326 472.91028795912916L1564.3346911299877 472.91028795912916L1564.3346911299877 392.11446224268803ZM1611.2773885014624 390.10954586010666L1614.941546028249 390.10954586010666L1613.2823048840437 403.383475013749L1608.6272116739121 403.383475013749Q1601.4832567474728 403.383475013749 1594.362346836925 406.2871470161083Q1587.2183919104857 409.19081901846755 1576.9403148227693 414.51421768945954L1576.9403148227693 414.51421768945954L1575.7650190122908 405.71102161881475Q1584.7295301941776 398.40575158113313 1593.7862214396314 394.2576487206199Q1602.8198676691936 390.10954586010666 1611.2773885014624 390.10954586010666L1611.2773885014624 390.10954586010666ZM1661.8842433997238 390.10954586010666L1661.8842433997238 390.10954586010666Q1680.1358959859822 390.10954586010666 1688.3629666593333 396.74651043692785Q1696.566992316793 403.383475013749 1696.566992316793 416.4960890561492L1696.566992316793 416.4960890561492Q1696.728307428035 427.2811564934836 1692.096259233795 433.34199567301124Q1687.4411660236638 439.40283485253894 1677.3244040471895 439.40283485253894L1677.3244040471895 439.40283485253894L1630.197346548581 439.40283485253894L1630.197346548581 428.4334072880706L1673.6602465204032 428.4334072880706Q1679.1449603026372 428.4334072880706 1680.8042014468424 424.7001147136087Q1682.4634425910476 420.96682213914676 1682.4634425910476 416.4960890561492L1682.4634425910476 416.4960890561492Q1682.3021274798057 408.70687368474097 1677.8083493809163 405.3883913963304Q1673.3376162979189 402.06990910791984 1662.5525488605845 402.06990910791984L1662.5525488605845 402.06990910791984Q1653.7493527899396 402.06990910791984 1648.7024943096485 404.627905871903Q1643.6325908134654 407.20894765177786 1641.5585393832089 413.5924170537899Q1639.4844879529523 419.97588645580197 1639.4844879529523 431.4292593539968L1639.4844879529523 431.4292593539968Q1639.4844879529523 444.3805582851548 1642.0655297328271 451.17883797321815Q1644.6235264968104 457.9771176612815 1650.2695553902868 460.46597937758946Q1655.915584283763 462.9548410938974 1665.2027256881343 462.9548410938974L1665.2027256881343 462.9548410938974Q1671.6783751537134 462.9548410938974 1679.3984554774465 462.3787156966039Q1687.1185358011794 461.8025902993104 1693.248510028382 460.9729697272077L1693.248510028382 460.9729697272077L1694.7464360613453 470.4214262428212Q1690.9209634233166 471.9193522757843 1685.3671145934068 472.91028795912916Q1679.8132657634978 473.901223642474 1673.9137416952121 474.40821399209227Q1668.0372626428184 474.8921593258188 1663.3821694326869 474.8921593258188L1663.3821694326869 474.8921593258188Q1649.4399348181842 474.8921593258188 1640.9824139859156 470.67492141763034Q1632.5248931536466 466.43463849355015 1628.6302854679427 457.05531702561194Q1624.7126327663468 447.6990405735654 1624.7126327663468 432.2588799260995L1624.7126327663468 432.2588799260995Q1624.7126327663468 416.334773944907 1628.6302854679427 407.1167675882109Q1632.5248931536466 397.9218062474066 1640.7289188111063 394.00415354581077Q1648.9559894844574 390.10954586010666 1661.8842433997238 390.10954586010666Z " fill="#ff6600" transform="matrix(0.5157457126533904,0,0,0.5157457126533904,0,77.58135881032854)"/></g></svg>